<?xml version="1.0" encoding="iso-8859-1"?>
<!-- Generator: Adobe Illustrator 19.0.0, SVG Export Plug-In . SVG Version: 6.00 Build 0)  -->
<svg version="1.1" id="Layer_1" xmlns="http://www.w3.org/2000/svg" xmlns:xlink="http://www.w3.org/1999/xlink" x="0px" y="0px"
	 viewBox="0 0 512.001 512.001" style="enable-background:new 0 0 512.001 512.001;" xml:space="preserve">
<g>
	<g>
		<path d="M73.606,58.074c-5.727,1.09-10.429,5.173-12.32,10.689l-50.207,146.45c-1.889,5.507-0.678,11.63,3.171,15.999
			c6.308,7.161,13.377,14.111,21.121,20.774l67.659-197.356C92.826,55.138,82.98,56.289,73.606,58.074z"/>
	</g>
</g>
<g>
	<g>
		<path d="M509.39,242.98l-58.263-89.864c-2.991-4.612-8.114-7.397-13.611-7.397h-81.816c-8.959,0-16.222,7.263-16.222,16.221
			v157.414h-93.684c6.164-0.62,12.178-1.481,18.007-2.59c5.727-1.09,10.429-5.173,12.32-10.689l50.207-146.451
			c1.889-5.507,0.678-11.63-3.171-15.999c-7.295-8.28-15.6-16.28-24.8-23.877l-68.43,199.605h-35.299h-89.445v-24.209
			c7.576,3.298,15.402,6.35,23.464,9.114c22.37,7.669,44.665,12.531,66.088,14.782l75.281-219.589
			c-18.298-11.366-38.888-21.206-61.256-28.875c-23.972-8.218-47.86-13.215-70.678-15.229l-74.59,217.571
			c2.713,1.749,5.483,3.459,8.3,5.138v41.296h-55.57C7.263,319.355,0,326.618,0,335.576v53.76
			c11.306-24.836,36.342-42.155,65.362-42.155c22.18,0,42.04,10.114,55.219,25.97c13.18-15.854,33.038-25.97,55.219-25.97
			c31.609,0,58.494,20.543,68.053,48.974c14.836,0,127.952,0,131.892,0c9.673-28.774,36.765-48.974,68.053-48.974
			c28.962,0,53.957,17.25,65.294,42.006c1.829-2.626,2.908-5.811,2.908-9.254V251.805C512,248.673,511.094,245.609,509.39,242.98z
			 M401.809,282.068H371.2c-6.146,0-11.13-4.984-11.13-11.13c0-6.146,4.984-11.13,11.13-11.13h30.609
			c6.146,0,11.13,4.984,11.13,11.13C412.939,277.084,407.955,282.068,401.809,282.068z M380.54,240.329v-71.831h50.829l47.49,71.831
			H380.54z"/>
	</g>
</g>
<g>
	<g>
		<circle cx="443.793" cy="418.972" r="38.4"/>
	</g>
</g>
<g>
	<g>
		<circle cx="65.362" cy="418.972" r="38.4"/>
	</g>
</g>
<g>
	<g>
		<circle cx="175.794" cy="418.972" r="38.4"/>
	</g>
</g>
<g>
</g>
<g>
</g>
<g>
</g>
<g>
</g>
<g>
</g>
<g>
</g>
<g>
</g>
<g>
</g>
<g>
</g>
<g>
</g>
<g>
</g>
<g>
</g>
<g>
</g>
<g>
</g>
<g>
</g>
</svg>
